HIERARCHY
ROOT Hips
{
  OFFSET -54.4136 91.7386 -52.0919
  CHANNELS 6 Xposition Yposition Zposition Zrotation Xrotation Yrotation
  JOINT Spine
  {
    OFFSET 0 8 0
    CHANNELS 6 Xposition Yposition Zposition Zrotation Xrotation Yrotation
    JOINT Spine1
    {
      OFFSET 0 8 0
      CHANNELS 6 Xposition Yposition Zposition Zrotation Xrotation Yrotation
      JOINT Spine2
      {
        OFFSET 0 8 0
        CHANNELS 6 Xposition Yposition Zposition Zrotation Xrotation Yrotation
        JOINT Spine3
        {
          OFFSET 0 8 0
          CHANNELS 6 Xposition Yposition Zposition Zrotation Xrotation Yrotation
          JOINT Neck
          {
            OFFSET 0 17 0
            CHANNELS 6 Xposition Yposition Zposition Zrotation Xrotation Yrotation
            JOINT Head
            {
              OFFSET 0 10.8 0
              CHANNELS 6 Xposition Yposition Zposition Zrotation Xrotation Yrotation
              End Site
              {
                OFFSET 0 20.25 0
              }
            }
          }
          JOINT LeftShoulder
          {
            OFFSET 5 17 0
            CHANNELS 6 Xposition Yposition Zposition Zrotation Xrotation Yrotation
            JOINT LeftShoulder2
            {
              OFFSET 6.45 0 0
              CHANNELS 6 Xposition Yposition Zposition Zrotation Xrotation Yrotation
              JOINT LeftArm
              {
                OFFSET 6.45 0 0
                CHANNELS 6 Xposition Yposition Zposition Zrotation Xrotation Yrotation
                JOINT LeftForeArm
                {
                  OFFSET 0 -32.4 -2
                  CHANNELS 6 Xposition Yposition Zposition Zrotation Xrotation Yrotation
                  JOINT LeftHand
                  {
                    OFFSET 0 -25.65 2
                    CHANNELS 6 Xposition Yposition Zposition Zrotation Xrotation Yrotation
                    JOINT LeftHandThumb1
                    {
                      OFFSET -0.5 -1.5 2.65
                      CHANNELS 6 Xposition Yposition Zposition Zrotation Xrotation Yrotation
                      JOINT LeftHandThumb2
                      {
                        OFFSET 0 -3.8 3.7
                        CHANNELS 6 Xposition Yposition Zposition Zrotation Xrotation Yrotation
                        JOINT LeftHandThumb3
                        {
                          OFFSET 0 -3 2.7
                          CHANNELS 6 Xposition Yposition Zposition Zrotation Xrotation Yrotation
                          End Site
                          {
                            OFFSET 0 -2.3 1.8
                          }
                        }
                      }
                    }
                    JOINT LeftHandIndex
                    {
                      OFFSET 0 -1.9 1.6
                      CHANNELS 6 Xposition Yposition Zposition Zrotation Xrotation Yrotation
                      JOINT LeftHandIndex1
                      {
                        OFFSET 0 -8.3 1.9
                        CHANNELS 6 Xposition Yposition Zposition Zrotation Xrotation Yrotation
                        JOINT LeftHandIndex2
                        {
                          OFFSET 0 -4.5 0
                          CHANNELS 6 Xposition Yposition Zposition Zrotation Xrotation Yrotation
                          JOINT LeftHandIndex3
                          {
                            OFFSET 0 -3.4 0
                            CHANNELS 6 Xposition Yposition Zposition Zrotation Xrotation Yrotation
                            End Site
                            {
                              OFFSET 0 -2.6 0
                            }
                          }
                        }
                      }
                    }
                    JOINT LeftHandMiddle
                    {
                      OFFSET -0.25 -2.2 0.4
                      CHANNELS 6 Xposition Yposition Zposition Zrotation Xrotation Yrotation
                      JOINT LeftHandMiddle1
                      {
                        OFFSET 0 -8.3 1
                        CHANNELS 6 Xposition Yposition Zposition Zrotation Xrotation Yrotation
                        JOINT LeftHandMiddle2
                        {
                          OFFSET 0 -4.65 0
                          CHANNELS 6 Xposition Yposition Zposition Zrotation Xrotation Yrotation
                          JOINT LeftHandMiddle3
                          {
                            OFFSET 0 -3.3 0
                            CHANNELS 6 Xposition Yposition Zposition Zrotation Xrotation Yrotation
                            End Site
                            {
                              OFFSET 0 -2.7 0
                            }
                          }
                        }
                      }
                    }
                    JOINT LeftHandRing
                    {
                      OFFSET -0.5 -2.15 -0.8
                      CHANNELS 6 Xposition Yposition Zposition Zrotation Xrotation Yrotation
                      JOINT LeftHandRing1
                      {
                        OFFSET 0 -7.75 -0.2
                        CHANNELS 6 Xposition Yposition Zposition Zrotation Xrotation Yrotation
                        JOINT LeftHandRing2
                        {
                          OFFSET 0 -3.8 0
                          CHANNELS 6 Xposition Yposition Zposition Zrotation Xrotation Yrotation
                          JOINT LeftHandRing3
                          {
                            OFFSET 0 -3.4 0
                            CHANNELS 6 Xposition Yposition Zposition Zrotation Xrotation Yrotation
                            End Site
                            {
                              OFFSET 0 -2.6 0
                            }
                          }
                        }
                      }
                    }
                    JOINT LeftHandPinky
                    {
                      OFFSET -0.75 -1.75 -1.85
                      CHANNELS 6 Xposition Yposition Zposition Zrotation Xrotation Yrotation
                      JOINT LeftHandPinky1
                      {
                        OFFSET 0 -7.15 -1
                        CHANNELS 6 Xposition Yposition Zposition Zrotation Xrotation Yrotation
                        JOINT LeftHandPinky2
                        {
                          OFFSET 0 -3 0
                          CHANNELS 6 Xposition Yposition Zposition Zrotation Xrotation Yrotation
                          JOINT LeftHandPinky3
                          {
                            OFFSET 0 -2.35 0
                            CHANNELS 6 Xposition Yposition Zposition Zrotation Xrotation Yrotation
                            End Site
                            {
                              OFFSET 0 -2.1 0
                            }
                          }
                        }
                      }
                    }
                  }
                }
              }
            }
          }
          JOINT RightShoulder
          {
            OFFSET -5 17 0
            CHANNELS 6 Xposition Yposition Zposition Zrotation Xrotation Yrotation
            JOINT RightShoulder2
            {
              OFFSET -6.45 0 0
              CHANNELS 6 Xposition Yposition Zposition Zrotation Xrotation Yrotation
              JOINT RightArm
              {
                OFFSET -6.45 0 0
                CHANNELS 6 Xposition Yposition Zposition Zrotation Xrotation Yrotation
                JOINT RightForeArm
                {
                  OFFSET 0 -32.4 -2
                  CHANNELS 6 Xposition Yposition Zposition Zrotation Xrotation Yrotation
                  JOINT RightHand
                  {
                    OFFSET 0 -25.65 2
                    CHANNELS 6 Xposition Yposition Zposition Zrotation Xrotation Yrotation
                    JOINT RightHandThumb1
                    {
                      OFFSET 0.5 -1.5 2.65
                      CHANNELS 6 Xposition Yposition Zposition Zrotation Xrotation Yrotation
                      JOINT RightHandThumb2
                      {
                        OFFSET 0 -3.8 3.7
                        CHANNELS 6 Xposition Yposition Zposition Zrotation Xrotation Yrotation
                        JOINT RightHandThumb3
                        {
                          OFFSET 0 -3 2.7
                          CHANNELS 6 Xposition Yposition Zposition Zrotation Xrotation Yrotation
                          End Site
                          {
                            OFFSET 0 -2.3 1.8
                          }
                        }
                      }
                    }
                    JOINT RightHandIndex
                    {
                      OFFSET 0 -1.9 1.6
                      CHANNELS 6 Xposition Yposition Zposition Zrotation Xrotation Yrotation
                      JOINT RightHandIndex1
                      {
                        OFFSET 0 -8.3 1.9
                        CHANNELS 6 Xposition Yposition Zposition Zrotation Xrotation Yrotation
                        JOINT RightHandIndex2
                        {
                          OFFSET 0 -4.5 0
                          CHANNELS 6 Xposition Yposition Zposition Zrotation Xrotation Yrotation
                          JOINT RightHandIndex3
                          {
                            OFFSET 0 -3.4 0
                            CHANNELS 6 Xposition Yposition Zposition Zrotation Xrotation Yrotation
                            End Site
                            {
                              OFFSET 0 -2.6 0
                            }
                          }
                        }
                      }
                    }
                    JOINT RightHandMiddle
                    {
                      OFFSET 0.25 -2.2 0.4
                      CHANNELS 6 Xposition Yposition Zposition Zrotation Xrotation Yrotation
                      JOINT RightHandMiddle1
                      {
                        OFFSET 0 -8.3 1
                        CHANNELS 6 Xposition Yposition Zposition Zrotation Xrotation Yrotation
                        JOINT RightHandMiddle2
                        {
                          OFFSET 0 -4.65 0
                          CHANNELS 6 Xposition Yposition Zposition Zrotation Xrotation Yrotation
                          JOINT RightHandMiddle3
                          {
                            OFFSET 0 -3.3 0
                            CHANNELS 6 Xposition Yposition Zposition Zrotation Xrotation Yrotation
                            End Site
                            {
                              OFFSET 0 -2.7 0
                            }
                          }
                        }
                      }
                    }
                    JOINT RightHandRing
                    {
                      OFFSET 0.5 -2.15 -0.8
                      CHANNELS 6 Xposition Yposition Zposition Zrotation Xrotation Yrotation
                      JOINT RightHandRing1
                      {
                        OFFSET 0 -7.75 -0.2
                        CHANNELS 6 Xposition Yposition Zposition Zrotation Xrotation Yrotation
                        JOINT RightHandRing2
                        {
                          OFFSET 0 -3.8 0
                          CHANNELS 6 Xposition Yposition Zposition Zrotation Xrotation Yrotation
                          JOINT RightHandRing3
                          {
                            OFFSET 0 -3.4 0
                            CHANNELS 6 Xposition Yposition Zposition Zrotation Xrotation Yrotation
                            End Site
                            {
                              OFFSET 0 -2.6 0
                            }
                          }
                        }
                      }
                    }
                    JOINT RightHandPinky
                    {
                      OFFSET 0.75 -1.75 -1.85
                      CHANNELS 6 Xposition Yposition Zposition Zrotation Xrotation Yrotation
                      JOINT RightHandPinky1
                      {
                        OFFSET 0 -7.15 -1
                        CHANNELS 6 Xposition Yposition Zposition Zrotation Xrotation Yrotation
                        JOINT RightHandPinky2
                        {
                          OFFSET 0 -3 0
                          CHANNELS 6 Xposition Yposition Zposition Zrotation Xrotation Yrotation
                          JOINT RightHandPinky3
                          {
                            OFFSET 0 -2.35 0
                            CHANNELS 6 Xposition Yposition Zposition Zrotation Xrotation Yrotation
                            End Site
                            {
                              OFFSET 0 -2.1 0
                            }
                          }
                        }
                      }
                    }
                  }
                }
              }
            }
          }
        }
      }
    }
  }
  JOINT LeftUpLeg
  {
    OFFSET 8 0 0
    CHANNELS 6 Xposition Yposition Zposition Zrotation Xrotation Yrotation
    JOINT LeftLeg
    {
      OFFSET 0 -45 -1
      CHANNELS 6 Xposition Yposition Zposition Zrotation Xrotation Yrotation
      JOINT LeftFoot
      {
        OFFSET 0 -41 -2
        CHANNELS 6 Xposition Yposition Zposition Zrotation Xrotation Yrotation
        JOINT LeftToeBase
        {
          OFFSET 0 -7.5 12.5
          CHANNELS 6 Xposition Yposition Zposition Zrotation Xrotation Yrotation
          JOINT LeftFootToe
          {
            OFFSET 0 0 4
            CHANNELS 6 Xposition Yposition Zposition Zrotation Xrotation Yrotation
            End Site
            {
              OFFSET 0 0 0
            }
          }
        }
      }
    }
  }
  JOINT RightUpLeg
  {
    OFFSET -8 0 0
    CHANNELS 6 Xposition Yposition Zposition Zrotation Xrotation Yrotation
    JOINT RightLeg
    {
      OFFSET 0 -45 -1
      CHANNELS 6 Xposition Yposition Zposition Zrotation Xrotation Yrotation
      JOINT RightFoot
      {
        OFFSET 0 -41 -2
        CHANNELS 6 Xposition Yposition Zposition Zrotation Xrotation Yrotation
        JOINT RightToeBase
        {
          OFFSET 0 -7.5 12.5
          CHANNELS 6 Xposition Yposition Zposition Zrotation Xrotation Yrotation
          JOINT RightFootToe
          {
            OFFSET 0 0 4
            CHANNELS 6 Xposition Yposition Zposition Zrotation Xrotation Yrotation
            End Site
            {
              OFFSET 0 0 0
            }
          }
        }
      }
    }
  }
}
MOTION
Frames:	3
Frame Time:	0.0111111
-57.1315 94.2971 -69.2823 -12.4466 3.59273 42.0335 1e-05 8 1e-05 -8.69387 8.45819 -2.19105 1e-05 8 1e-05 -0.882047 3.2805 5.06574 1e-05 8 1e-05 -7.099 -10.8515 29.223 1e-05 8 1e-05 6.19976 0.957974 -14.7135 1e-05 17 1e-05 2.23911 0.209838 5.21855 1e-05 10.8 1e-05 5.18681 0.806778 12.1791 5 17 1e-05 1.86337 -0.146931 -8.49674 6.45 1e-05 1e-05 1.86292 -0.14996 -8.49673 6.45 1e-05 1e-05 50.4983 -36.2397 17.8868 1e-05 -32.4 -2 -43.8822 -64.3334 -81.5343 1e-05 -25.65 2 38.0121 -41.0322 -48.4897 -0.5 -1.5 2.65 7.47312 -26.0796 20.2275 1e-05 -3.8 3.7 0.397393 19.8712 -0.283034 1e-05 -3 2.7 1.80128e-07 0.103019 -9.5213e-07 1e-05 -1.9 1.6 -0 0 4.77083e-15 1e-05 -8.3 1.9 -47.7183 -28.3906 -11.4392 1e-05 -4.5 1e-05 -49.9129 0.00298984 -0.0138759 1e-05 -3.4 1e-05 -34.4388 3.11803e-06 -0.00548807 -0.25 -2.2 0.4 -0 0 4.77083e-15 1e-05 -8.3 1 -55.3642 -24.4133 -10.0432 1e-05 -4.65 1e-05 -31.3154 -0.00386056 -0.00421419 1e-05 -3.3 1e-05 -22.8814 3.60588e-06 -0.00574674 -0.5 -2.15 -0.8 -0 0 4.77083e-15 1e-05 -7.75 -0.2 -59.2574 -19.9647 -6.99724 1e-05 -3.8 1e-05 -55.7018 -0.00241161 -0.00593187 1e-05 -3.4 1e-05 -38.6153 -0.00218051 1.96069e-06 -0.75 -1.75 -1.85 -0 0 4.77083e-15 1e-05 -7.15 -1 -58.9867 -22.4475 -5.91491 1e-05 -3 1e-05 -50.3953 3.73425e-06 0.00191566 1e-05 -2.35 1e-05 -34.7703 -5.82044e-06 -3.07083e-06 -5 17 1e-05 -0.00959326 -0.0120653 4.99707 -6.45 1e-05 1e-05 -0.0099356 -0.00814382 4.99704 -6.45 1e-05 1e-05 -8.89038 -34.1018 -3.55354 1e-05 -32.4 -2 64.909 -67.821 18.4523 1e-05 -25.65 2 -84.299 -18.6202 -37.8767 0.5 -1.5 2.65 20.897 -6.44826 4.86414 1e-05 -3.8 3.7 -0.4867 12.9622 0.395215 1e-05 -3 2.7 -0.139842 45.9027 0.12693 1e-05 -1.9 1.6 3.83327e-08 -2.67458e-07 -2.1152e-06 1e-05 -8.3 1.9 49.7139 30.9713 -16.2693 1e-05 -4.5 1e-05 59.6058 -0.00224997 -0.00337411 1e-05 -3.4 1e-05 41.7453 -0.00409587 0.0470503 0.25 -2.2 0.4 3.83327e-08 -2.67458e-07 -2.1152e-06 1e-05 -8.3 1 68.3138 20.7236 -18.0193 1e-05 -4.65 1e-05 86.6395 -0.00194961 -0.0169306 1e-05 -3.3 1e-05 79.8168 -0.00505689 0.0110106 0.5 -2.15 -0.8 3.83327e-08 -2.67458e-07 -2.1152e-06 1e-05 -7.75 -0.2 60.8487 20.1541 -16.039 1e-05 -3.8 1e-05 82.3447 0.00202432 0.0425208 1e-05 -3.4 1e-05 70.2326 0.0561661 0.00896836 0.75 -1.75 -1.85 3.83327e-08 -2.67458e-07 -2.1152e-06 1e-05 -7.15 -1 30.3038 15.4413 -5.71308 1e-05 -3 1e-05 53.7198 -0.0297908 0.0266703 1e-05 -2.35 1e-05 37.1326 0.0187351 0.0261107 8 1e-05 1e-05 6.91519 -11.8457 -14.8061 1e-05 -45 -1 1.5259 4.37563 32.9179 1e-05 -41 -2 -3.32868 -1.99575 -3.35193 1e-05 -7.5 12.5 4.85314e-20 -6.49711e-10 3.18055e-15 1e-05 1e-05 4 2.20005 0.469906 -0.00867641 -8 1e-05 1e-05 20.8875 -54.0009 20.0621 1e-05 -45 -1 -16.5368 69.2426 25.1344 1e-05 -41 -2 -5.92542 -0.0232122 -4.30482 1e-05 -7.5 12.5 1.86711e-06 -1.02406e-07 3.2032e-07 1e-05 1e-05 4 -0.000945641 -0.0114476 -0.000655109 
-57.0465 94.2974 -69.056 -12.6507 3.65862 42.0641 1e-05 8 1e-05 -8.6538 8.42329 -2.18861 1e-05 8 1e-05 -0.866872 3.21345 5.08131 1e-05 8 1e-05 -7.16728 -10.9313 29.1998 1e-05 8 1e-05 6.22446 0.958412 -14.6969 1e-05 17 1e-05 2.24186 0.258868 5.22845 1e-05 10.8 1e-05 5.18627 0.921887 12.1994 5 17 1e-05 1.84719 -0.146994 -8.49412 6.45 1e-05 1e-05 1.84677 -0.149736 -8.4944 6.45 1e-05 1e-05 50.7723 -36.1049 18.1349 1e-05 -32.4 -2 -44.2583 -64.4425 -81.9076 1e-05 -25.65 2 38.4022 -41.2281 -48.1444 -0.5 -1.5 2.65 7.59022 -26.3938 20.2784 1e-05 -3.8 3.7 0.399453 20.2624 -0.28374 1e-05 -3 2.7 1.80128e-07 0.103019 -9.5213e-07 1e-05 -1.9 1.6 -2.64834e-31 -3.18055e-15 -4.77083e-15 1e-05 -8.3 1.9 -47.8623 -28.4424 -11.4929 1e-05 -4.5 1e-05 -49.7563 0.00298984 -0.0138759 1e-05 -3.4 1e-05 -34.3324 3.11803e-06 -0.00548807 -0.25 -2.2 0.4 -2.64834e-31 -3.18055e-15 -4.77083e-15 1e-05 -8.3 1 -55.1266 -24.4853 -10.0354 1e-05 -4.65 1e-05 -31.4796 -0.00386056 -0.00421419 1e-05 -3.3 1e-05 -22.9794 3.60588e-06 -0.00574674 -0.5 -2.15 -0.8 -2.64834e-31 -3.18055e-15 -4.77083e-15 1e-05 -7.75 -0.2 -59.0796 -19.9758 -6.99189 1e-05 -3.8 1e-05 -55.7192 -0.00241161 -0.00593187 1e-05 -3.4 1e-05 -38.6285 -0.00218051 1.96069e-06 -0.75 -1.75 -1.85 -2.64834e-31 -3.18055e-15 -4.77083e-15 1e-05 -7.15 -1 -59.0235 -22.4224 -5.90932 1e-05 -3 1e-05 -50.5633 3.73425e-06 0.00191566 1e-05 -2.35 1e-05 -34.8861 -5.82044e-06 -3.07083e-06 -5 17 1e-05 -0.00385815 -0.0120656 4.98136 -6.45 1e-05 1e-05 -0.00418073 -0.00814404 4.97977 -6.45 1e-05 1e-05 -8.99365 -33.9831 -3.58774 1e-05 -32.4 -2 65.6188 -67.7382 19.1444 1e-05 -25.65 2 -84.2385 -18.6352 -37.7092 0.5 -1.5 2.65 20.9131 -6.43224 4.91548 1e-05 -3.8 3.7 -0.481855 13.0682 0.389895 1e-05 -3 2.7 -0.135537 45.4139 0.123745 1e-05 -1.9 1.6 3.83327e-08 -2.67458e-07 -2.1152e-06 1e-05 -8.3 1.9 49.4241 31.0461 -16.1965 1e-05 -4.5 1e-05 59.8719 -0.00224997 -0.00389683 1e-05 -3.4 1e-05 41.9663 -0.00464673 0.0470291 0.25 -2.2 0.4 3.83327e-08 -2.67458e-07 -2.1152e-06 1e-05 -8.3 1 68.1291 20.7889 -17.9916 1e-05 -4.65 1e-05 86.6514 -0.00194961 -0.0169306 1e-05 -3.3 1e-05 79.8472 -0.00505689 0.0110106 0.5 -2.15 -0.8 3.83327e-08 -2.67458e-07 -2.1152e-06 1e-05 -7.75 -0.2 60.7065 20.1441 -15.9772 1e-05 -3.8 1e-05 82.3743 0.00202432 0.0427075 1e-05 -3.4 1e-05 70.2904 0.0566439 0.00867352 0.75 -1.75 -1.85 3.83327e-08 -2.67458e-07 -2.1152e-06 1e-05 -7.15 -1 30.2926 15.4109 -5.70046 1e-05 -3 1e-05 53.7989 -0.0297519 0.0265656 1e-05 -2.35 1e-05 37.1909 0.0187351 0.0260023 8 1e-05 1e-05 7.09103 -11.8941 -14.7013 1e-05 -45 -1 1.52672 4.38544 32.9087 1e-05 -41 -2 -3.43911 -2.1147 -3.48403 1e-05 -7.5 12.5 3.03321e-20 -6.49711e-10 -3.18055e-15 1e-05 1e-05 4 2.2428 0.587905 -0.00972445 -8 1e-05 1e-05 20.5899 -53.4974 19.7436 1e-05 -45 -1 -15.7822 68.6298 24.306 1e-05 -41 -2 -5.85139 -0.071865 -4.13469 1e-05 -7.5 12.5 1.86711e-06 -1.02406e-07 3.2032e-07 1e-05 1e-05 4 -0.00122425 -0.0320666 -0.00154493 
-56.959 94.2972 -68.8254 -12.8435 3.71926 42.1103 1e-05 8 1e-05 -8.60327 8.3762 -2.17506 1e-05 8 1e-05 -0.852979 3.14786 5.10146 1e-05 8 1e-05 -7.2384 -10.9888 29.1798 1e-05 8 1e-05 6.23895 0.95813 -14.6719 1e-05 17 1e-05 2.24212 0.311783 5.2294 1e-05 10.8 1e-05 5.17933 1.04524 12.1988 5 17 1e-05 1.84215 -0.147176 -8.49326 6.45 1e-05 1e-05 1.84179 -0.14951 -8.49325 6.45 1e-05 1e-05 50.985 -36.0289 18.3425 1e-05 -32.4 -2 -44.5413 -64.5327 -82.1643 1e-05 -25.65 2 38.7403 -41.4258 -47.838 -0.5 -1.5 2.65 7.7129 -26.6925 20.324 1e-05 -3.8 3.7 0.401314 20.6142 -0.28439 1e-05 -3 2.7 1.80128e-07 0.103019 -9.5213e-07 1e-05 -1.9 1.6 1.76556e-31 3.18055e-15 -3.18055e-15 1e-05 -8.3 1.9 -48.0162 -28.4949 -11.5489 1e-05 -4.5 1e-05 -49.5637 0.00298984 -0.0138759 1e-05 -3.4 1e-05 -34.202 3.11803e-06 -0.00548807 -0.25 -2.2 0.4 1.76556e-31 3.18055e-15 -3.18055e-15 1e-05 -8.3 1 -54.8999 -24.5539 -10.0275 1e-05 -4.65 1e-05 -31.6506 -0.00386056 -0.00421419 1e-05 -3.3 1e-05 -23.0815 3.60588e-06 -0.00574674 -0.5 -2.15 -0.8 1.76556e-31 3.18055e-15 -3.18055e-15 1e-05 -7.75 -0.2 -58.8347 -19.9943 -6.98586 1e-05 -3.8 1e-05 -55.8113 -0.00241161 -0.00593187 1e-05 -3.4 1e-05 -38.6993 -0.00218051 1.96069e-06 -0.75 -1.75 -1.85 1.76556e-31 3.18055e-15 -3.18055e-15 1e-05 -7.15 -1 -59.0467 -22.4044 -5.90677 1e-05 -3 1e-05 -50.7042 3.73425e-06 0.00191566 1e-05 -2.35 1e-05 -34.9834 -5.82044e-06 -3.07083e-06 -5 17 1e-05 1.18538e-05 -0.012066 4.95639 -6.45 1e-05 1e-05 -0.000410866 -0.00814428 4.96054 -6.45 1e-05 1e-05 -9.11045 -33.8507 -3.64113 1e-05 -32.4 -2 66.3384 -67.6493 19.8086 1e-05 -25.65 2 -84.1627 -18.6667 -37.606 0.5 -1.5 2.65 20.9021 -6.44603 4.97154 1e-05 -3.8 3.7 -0.476664 13.1451 0.384614 1e-05 -3 2.7 -0.132472 45.0517 0.121405 1e-05 -1.9 1.6 3.83327e-08 -2.67458e-07 -2.1152e-06 1e-05 -8.3 1.9 49.1884 31.1064 -16.1378 1e-05 -4.5 1e-05 60.0678 -0.00224997 -0.00444653 1e-05 -3.4 1e-05 42.1291 -0.00520229 0.0466559 0.25 -2.2 0.4 3.83327e-08 -2.67458e-07 -2.1152e-06 1e-05 -8.3 1 68.0094 20.8275 -17.9719 1e-05 -4.65 1e-05 86.6535 -0.00194961 -0.0169306 1e-05 -3.3 1e-05 79.8527 -0.00505689 0.0110106 0.5 -2.15 -0.8 3.83327e-08 -2.67458e-07 -2.1152e-06 1e-05 -7.75 -0.2 60.5861 20.1354 -15.9252 1e-05 -3.8 1e-05 82.3964 0.00202432 0.0428716 1e-05 -3.4 1e-05 70.3333 0.0570928 0.00836785 0.75 -1.75 -1.85 3.83327e-08 -2.67458e-07 -2.1152e-06 1e-05 -7.15 -1 30.2239 15.3732 -5.67334 1e-05 -3 1e-05 53.9316 -0.0296922 0.0264525 1e-05 -2.35 1e-05 37.288 0.0187351 0.0258823 8 1e-05 1e-05 7.26148 -11.9302 -14.6162 1e-05 -45 -1 1.52722 4.38927 32.8985 1e-05 -41 -2 -3.5501 -2.23043 -3.62171 1e-05 -7.5 12.5 3.63986e-20 -6.49711e-10 6.36111e-15 1e-05 1e-05 4 2.28987 0.707953 -0.0108797 -8 1e-05 1e-05 20.2423 -52.9512 19.3907 1e-05 -45 -1 -15.0009 67.9414 23.4479 1e-05 -41 -2 -5.79262 -0.148235 -3.94374 1e-05 -7.5 12.5 1.86711e-06 -1.02406e-07 3.2032e-07 1e-05 1e-05 4 -0.00154778 -0.0215628 -0.0024538 
